<?xml version="1.0" encoding="utf-8"?>
<!-- Generator: Adobe Illustrator 16.0.3, SVG Export Plug-In . SVG Version: 6.00 Build 0)  -->
<!DOCTYPE svg PUBLIC "-//W3C//DTD SVG 1.1//EN" "http://www.w3.org/Graphics/SVG/1.1/DTD/svg11.dtd">
<svg version="1.1" id="Ebene_1" xmlns="http://www.w3.org/2000/svg" xmlns:xlink="http://www.w3.org/1999/xlink" x="0px" y="0px"
	 width="300px" height="300px" viewBox="0 0 300 300" enable-background="new 0 0 300 300" xml:space="preserve">
<g>
	<path fill="#0DF205" d="M83.604,233.803h-3.336l-0.625-0.625c-29.811-1.668-53.993-26.893-53.993-56.911v-52.533
		c0-15.218,6.463-29.394,17.095-40.233c10.84-10.632,25.641-16.469,40.859-16.469h1.667c13.134,0.417,25.85,5.211,35.647,13.967
		c10.215,8.964,16.886,21.472,18.763,34.813c0.417,3.127-1.668,5.838-4.587,6.255c-2.918,0.416-5.837-1.668-6.254-4.795
		c-1.459-10.841-6.879-20.847-15.01-28.144c-8.338-7.296-19.179-11.257-30.227-11.257h-1.668
		c-24.6,0.834-45.028,21.055-45.028,45.862v52.533c0,25.224,21.263,46.487,46.696,46.487h2.084
		c10.424-0.625,20.222-4.795,28.143-11.674c8.131-7.297,13.551-17.51,15.219-28.143c0.417-3.127,3.127-5.211,6.045-4.795
		c3.127,0.418,5.212,3.127,4.795,6.047c-1.876,13.34-8.547,26.057-18.971,35.23C110.704,228.383,97.362,233.803,83.604,233.803z"/>
	<path fill="#0DF205" d="M166.156,232.969c-2.918,0-5.42-2.502-5.42-5.42V83.291c0-6.254,4.17-11.674,10.215-13.133
		c6.254-1.459,12.299,1.459,15.219,7.088l72.545,143.215c0.834,1.459,2.086,1.459,2.92,1.252c0.625-0.209,1.875-0.834,1.875-2.502
		V71.617c0-2.918,2.502-5.42,5.42-5.42c3.127,0,5.42,2.502,5.42,5.42v147.594c0,6.463-3.959,11.674-10.215,13.133
		c-6.254,1.459-12.299-1.25-15.217-7.088L176.371,82.249c-0.834-1.668-2.084-1.459-2.709-1.251c-0.834,0-1.877,0.626-1.877,2.293
		v144.258C171.785,230.467,169.283,232.969,166.156,232.969z"/>
</g>
</svg>
